<svg width="196" height="73" viewBox="0 0 196 73" fill="none" xmlns="http://www.w3.org/2000/svg">
<path d="M33.217 8.3119C33.217 7.71312 33.702 7.22768 34.3001 7.22768C34.8981 7.22768 35.3831 7.71312 35.3831 8.3119C35.3831 8.91068 34.8981 9.39612 34.3001 9.39612C33.702 9.39612 33.217 8.91068 33.217 8.3119ZM38.6328 9.39594C39.231 9.39594 39.716 8.91049 39.716 8.31172C39.716 7.71294 39.231 7.22749 38.6328 7.22749C38.0346 7.22749 37.5496 7.71294 37.5496 8.31172C37.5496 8.91049 38.0346 9.39594 38.6328 9.39594ZM34.3001 13.7327C34.8983 13.7327 35.3833 13.2472 35.3833 12.6484C35.3833 12.0497 34.8983 11.5642 34.3001 11.5642C33.7019 11.5642 33.2168 12.0497 33.2168 12.6484C33.2168 13.2472 33.7019 13.7327 34.3001 13.7327ZM38.6328 13.7327C39.231 13.7327 39.716 13.2472 39.716 12.6484C39.716 12.0497 39.231 11.5642 38.6328 11.5642C38.0346 11.5642 37.5496 12.0497 37.5496 12.6484C37.5496 13.2472 38.0346 13.7327 38.6328 13.7327ZM21.3023 20.2376C20.704 20.2376 20.219 20.7231 20.219 21.3219C20.219 21.9206 20.704 22.4061 21.3023 22.4061C21.9005 22.4061 22.3855 21.9206 22.3855 21.3219C22.3855 20.7231 21.9005 20.2376 21.3023 20.2376ZM25.6348 22.4059C26.233 22.4059 26.7178 21.9205 26.7178 21.3217C26.7178 20.7229 26.2328 20.2375 25.6348 20.2375C25.0368 20.2375 24.5518 20.7229 24.5518 21.3217C24.5518 21.9205 25.0368 22.4059 25.6348 22.4059ZM21.3023 24.5742C20.704 24.5742 20.219 25.0596 20.219 25.6584C20.219 26.2572 20.704 26.7426 21.3023 26.7426C21.9005 26.7426 22.3855 26.2572 22.3855 25.6584C22.3855 25.0596 21.9005 24.5742 21.3023 24.5742ZM25.6348 24.5742C25.0366 24.5742 24.5516 25.0596 24.5516 25.6584C24.5516 26.2572 25.0366 26.7426 25.6348 26.7426C26.233 26.7426 26.718 26.2572 26.718 25.6584C26.718 25.0596 26.233 24.5742 25.6348 24.5742ZM21.3023 33.2476C20.704 33.2476 20.219 33.733 20.219 34.3318C20.219 34.9306 20.704 35.416 21.3023 35.416C21.9005 35.416 22.3855 34.9306 22.3855 34.3318C22.3855 33.733 21.9005 33.2476 21.3023 33.2476ZM25.6348 33.2476C25.0366 33.2476 24.5516 33.733 24.5516 34.3318C24.5516 34.9306 25.0366 35.416 25.6348 35.416C26.233 35.416 26.718 34.9306 26.718 34.3318C26.718 33.733 26.233 33.2476 25.6348 33.2476ZM21.3023 28.9109C20.704 28.9109 20.219 29.3963 20.219 29.9951C20.219 30.5939 20.704 31.0793 21.3023 31.0793C21.9005 31.0793 22.3855 30.5939 22.3855 29.9951C22.3855 29.3963 21.9005 28.9109 21.3023 28.9109ZM25.6348 28.9109C25.0366 28.9109 24.5516 29.3963 24.5516 29.9951C24.5516 30.5939 25.0366 31.0793 25.6348 31.0793C26.233 31.0793 26.718 30.5939 26.718 29.9951C26.718 29.3963 26.233 28.9109 25.6348 28.9109ZM21.3023 41.9208C20.704 41.9208 20.219 42.4063 20.219 43.0051C20.219 43.6038 20.704 44.0893 21.3023 44.0893C21.9005 44.0893 22.3855 43.6038 22.3855 43.0051C22.3855 42.4063 21.9005 41.9208 21.3023 41.9208ZM25.6348 41.9208C25.0366 41.9208 24.5516 42.4063 24.5516 43.0051C24.5516 43.6038 25.0366 44.0893 25.6348 44.0893C26.233 44.0893 26.718 43.6038 26.718 43.0051C26.718 42.4063 26.233 41.9208 25.6348 41.9208ZM21.3023 37.5841C20.704 37.5841 20.219 38.0696 20.219 38.6684C20.219 39.2671 20.704 39.7526 21.3023 39.7526C21.9005 39.7526 22.3855 39.2671 22.3855 38.6684C22.3855 38.0696 21.9005 37.5841 21.3023 37.5841ZM25.6348 37.5841C25.0366 37.5841 24.5516 38.0696 24.5516 38.6684C24.5516 39.2671 25.0366 39.7526 25.6348 39.7526C26.233 39.7526 26.718 39.2671 26.718 38.6684C26.718 38.0696 26.233 37.5841 25.6348 37.5841ZM21.3023 46.2574C20.704 46.2574 20.219 46.7428 20.219 47.3416C20.219 47.9404 20.704 48.4258 21.3023 48.4258C21.9005 48.4258 22.3855 47.9404 22.3855 47.3416C22.3855 46.7428 21.9005 46.2574 21.3023 46.2574ZM25.6348 46.2574C25.0366 46.2574 24.5516 46.7428 24.5516 47.3416C24.5516 47.9404 25.0366 48.4258 25.6348 48.4258C26.233 48.4258 26.718 47.9404 26.718 47.3416C26.718 46.7428 26.233 46.2574 25.6348 46.2574ZM21.3023 50.5941C20.704 50.5941 20.219 51.0795 20.219 51.6783C20.219 52.2771 20.704 52.7625 21.3023 52.7625C21.9005 52.7625 22.3855 52.2771 22.3855 51.6783C22.3855 51.0795 21.9005 50.5941 21.3023 50.5941ZM25.6348 50.5941C25.0366 50.5941 24.5516 51.0795 24.5516 51.6783C24.5516 52.2771 25.0366 52.7625 25.6348 52.7625C26.233 52.7625 26.718 52.2771 26.718 51.6783C26.718 51.0795 26.233 50.5941 25.6348 50.5941ZM8.30426 59.2673C7.70603 59.2673 7.22103 59.7528 7.22103 60.3516C7.22103 60.9503 7.70603 61.4358 8.30426 61.4358C8.90249 61.4358 9.38749 60.9503 9.38749 60.3516C9.38749 59.7528 8.90249 59.2673 8.30426 59.2673ZM12.6368 59.2673C12.0386 59.2673 11.5536 59.7528 11.5536 60.3516C11.5536 60.9503 12.0386 61.4358 12.6368 61.4358C13.235 61.4358 13.72 60.9503 13.72 60.3516C13.72 59.7528 13.235 59.2673 12.6368 59.2673ZM8.30426 63.6039C7.70603 63.6039 7.22103 64.0893 7.22103 64.6881C7.22103 65.2869 7.70603 65.7723 8.30426 65.7723C8.90249 65.7723 9.38749 65.2869 9.38749 64.6881C9.38749 64.0893 8.90249 63.6039 8.30426 63.6039ZM12.6368 63.6039C12.0386 63.6039 11.5536 64.0893 11.5536 64.6881C11.5536 65.2869 12.0386 65.7723 12.6368 65.7723C13.235 65.7723 13.72 65.2869 13.72 64.6881C13.72 64.0893 13.235 63.6039 12.6368 63.6039ZM34.3001 33.2476C33.7019 33.2476 33.2168 33.733 33.2168 34.3318C33.2168 34.9306 33.7019 35.416 34.3001 35.416C34.8983 35.416 35.3833 34.9306 35.3833 34.3318C35.3833 33.733 34.8983 33.2476 34.3001 33.2476ZM38.6328 33.2476C38.0346 33.2476 37.5496 33.733 37.5496 34.3318C37.5496 34.9306 38.0346 35.416 38.6328 35.416C39.231 35.416 39.716 34.9306 39.716 34.3318C39.716 33.733 39.231 33.2476 38.6328 33.2476ZM34.3001 37.5841C33.7019 37.5841 33.2168 38.0696 33.2168 38.6684C33.2168 39.2671 33.7019 39.7526 34.3001 39.7526C34.8983 39.7526 35.3833 39.2671 35.3833 38.6684C35.3833 38.0696 34.8983 37.5841 34.3001 37.5841ZM38.6328 37.5841C38.0346 37.5841 37.5496 38.0696 37.5496 38.6684C37.5496 39.2671 38.0346 39.7526 38.6328 39.7526C39.231 39.7526 39.716 39.2671 39.716 38.6684C39.716 38.0696 39.231 37.5841 38.6328 37.5841ZM8.30426 33.2476C7.70603 33.2476 7.22103 33.733 7.22103 34.3318C7.22103 34.9306 7.70603 35.416 8.30426 35.416C8.90249 35.416 9.38749 34.9306 9.38749 34.3318C9.38749 33.733 8.90249 33.2476 8.30426 33.2476ZM12.6368 33.2476C12.0386 33.2476 11.5536 33.733 11.5536 34.3318C11.5536 34.9306 12.0386 35.416 12.6368 35.416C13.235 35.416 13.72 34.9306 13.72 34.3318C13.72 33.733 13.235 33.2476 12.6368 33.2476ZM8.30426 37.5841C7.70603 37.5841 7.22103 38.0696 7.22103 38.6684C7.22103 39.2671 7.70603 39.7526 8.30426 39.7526C8.90249 39.7526 9.38749 39.2671 9.38749 38.6684C9.38749 38.0696 8.90249 37.5841 8.30426 37.5841ZM12.6368 37.5841C12.0386 37.5841 11.5536 38.0696 11.5536 38.6684C11.5536 39.2671 12.0386 39.7526 12.6368 39.7526C13.235 39.7526 13.72 39.2671 13.72 38.6684C13.72 38.0696 13.235 37.5841 12.6368 37.5841ZM16.9695 33.2476C16.3713 33.2476 15.8863 33.733 15.8863 34.3318C15.8863 34.9306 16.3713 35.416 16.9695 35.416C17.5678 35.416 18.0528 34.9306 18.0528 34.3318C18.0528 33.733 17.5678 33.2476 16.9695 33.2476ZM16.9695 37.5841C16.3713 37.5841 15.8863 38.0696 15.8863 38.6684C15.8863 39.2671 16.3713 39.7526 16.9695 39.7526C17.5678 39.7526 18.0528 39.2671 18.0528 38.6684C18.0528 38.0696 17.5678 37.5841 16.9695 37.5841ZM29.9675 33.2476C29.3693 33.2476 28.8843 33.733 28.8843 34.3318C28.8843 34.9306 29.3693 35.416 29.9675 35.416C30.5658 35.416 31.0508 34.9306 31.0508 34.3318C31.0508 33.733 30.5658 33.2476 29.9675 33.2476ZM29.9675 37.5841C29.3693 37.5841 28.8843 38.0696 28.8843 38.6684C28.8843 39.2671 29.3693 39.7526 29.9675 39.7526C30.5658 39.7526 31.0508 39.2671 31.0508 38.6684C31.0508 38.0696 30.5658 37.5841 29.9675 37.5841ZM46.9369 36.5001C46.9369 36.8992 46.6136 37.2228 46.2149 37.2228H45.0992C44.9458 39.0719 44.2118 40.7574 43.0789 42.0964L43.8703 42.8885C44.1521 43.1708 44.1521 43.6283 43.8703 43.9106C43.7293 44.0517 43.5444 44.1223 43.3596 44.1223C43.1747 44.1223 42.99 44.0517 42.8488 43.9106L42.0575 43.1186C40.7198 44.2524 39.0356 44.9874 37.1884 45.1407V46.2574C37.1884 46.6565 36.8651 46.9803 36.4663 46.9803C36.0676 46.9803 35.7443 46.6567 35.7443 46.2574V45.1732H32.567C32.328 45.1732 32.1336 45.3677 32.1336 45.607V48.787H33.2168C33.6156 48.787 33.9389 49.1106 33.9389 49.5099C33.9389 49.9092 33.6156 50.2327 33.2168 50.2327H32.1012C31.948 52.0818 31.2138 53.7674 30.0809 55.1064L30.8723 55.8984C31.1541 56.1807 31.1541 56.6383 30.8723 56.9206C30.7313 57.0617 30.5464 57.1323 30.3615 57.1323C30.1767 57.1323 29.992 57.0617 29.8508 56.9206L29.0595 56.1285C27.7218 57.2626 26.0376 57.9973 24.1902 58.1508V59.2673C24.1902 59.6665 23.8669 59.9902 23.4682 59.9902C23.0694 59.9902 22.7461 59.6666 22.7461 59.2673V58.1833H19.5688C19.3298 58.1833 19.1354 58.3778 19.1354 58.6171V61.7973H20.2187C20.6174 61.7973 20.9407 62.1209 20.9407 62.5202C20.9407 62.9195 20.6174 63.2431 20.2187 63.2431H19.103C18.9496 65.092 18.2156 66.7777 17.0826 68.1167L17.8739 68.9087C18.1558 69.1911 18.1558 69.6486 17.8739 69.9309C17.733 70.072 17.5481 70.1426 17.3632 70.1426C17.1783 70.1426 16.9936 70.072 16.8525 69.9309L16.0612 69.1389C14.7234 70.2729 13.0392 71.0077 11.192 71.161V72.2777C11.192 72.6768 10.8687 73.0005 10.47 73.0005C10.0712 73.0005 9.74795 72.677 9.74795 72.2777V71.161C7.90058 71.0075 6.21657 70.2727 4.87881 69.1389L4.08749 69.9309C3.94655 70.072 3.76167 70.1426 3.57678 70.1426C3.3919 70.1426 3.2072 70.072 3.06626 69.9309C2.78419 69.6486 2.78419 69.1911 3.06626 68.9087L3.85757 68.1167C2.72475 66.7777 1.99051 65.0921 1.83735 63.2431H0.72203C0.323273 63.2431 0 62.9195 0 62.5202C0 62.1209 0.323273 61.7973 0.72203 61.7973H1.83771C1.99087 59.9484 2.72512 58.2627 3.85794 56.9237L3.06662 56.1316C2.78474 55.8493 2.78474 55.3918 3.06662 55.1095C3.34851 54.8271 3.80579 54.8273 4.08786 55.1095L4.87917 55.9015C6.21693 54.7675 7.90112 54.0327 9.74832 53.8792V52.7625C9.74832 52.3634 10.0716 52.0397 10.4703 52.0397C10.8691 52.0397 11.1924 52.3632 11.1924 52.7625V53.8468H14.3697C14.6087 53.8468 14.8031 53.6522 14.8031 53.413V50.2327H13.7198C13.3211 50.2327 12.9978 49.9092 12.9978 49.5099C12.9978 49.1106 13.3211 48.787 13.7198 48.787H14.8031V45.6068C14.8031 45.3675 14.6087 45.173 14.3697 45.173H11.1924V46.2572C11.1924 46.6563 10.8691 46.9801 10.4703 46.9801C10.0716 46.9801 9.74832 46.6565 9.74832 46.2572V45.1405C7.90094 44.987 6.21693 44.2523 4.87917 43.1184L4.08786 43.9104C3.94692 44.0515 3.76203 44.1221 3.57715 44.1221C3.39227 44.1221 3.20756 44.0515 3.06662 43.9104C2.78456 43.6281 2.78456 43.1706 3.06662 42.8883L3.85794 42.0962C2.72493 40.7572 1.99087 39.0717 1.83771 37.2226H0.72203C0.323273 37.2226 0 36.899 0 36.4999C0 36.1008 0.323273 35.7772 0.72203 35.7772H1.83771C1.99087 33.9281 2.72512 32.2426 3.85794 30.9036L3.06662 30.1115C2.78474 29.8292 2.78474 29.3717 3.06662 29.0894C3.34851 28.8072 3.80579 28.807 4.08786 29.0894L4.87917 29.8814C6.21693 28.7474 7.90112 28.0126 9.74832 27.8591V26.7424C9.74832 26.3433 10.0716 26.0197 10.4703 26.0197C10.8691 26.0197 11.1924 26.3433 11.1924 26.7424V27.8267H14.3697C14.6087 27.8267 14.8031 27.6321 14.8031 27.3929V24.2126H13.7198C13.3211 24.2126 12.9978 23.8891 12.9978 23.4899C12.9978 23.0908 13.3211 22.7673 13.7198 22.7673H14.8348C14.9827 20.9625 15.6825 19.2715 16.8528 17.8907L16.0644 17.1016C15.7826 16.8193 15.7826 16.3617 16.0644 16.0794C16.3465 15.7973 16.8036 15.7973 17.0857 16.0794L17.8741 16.8685C19.2536 15.6971 20.9431 14.9966 22.7461 14.8486V13.7327C22.7461 13.3335 23.0694 13.01 23.4682 13.01C23.8669 13.01 24.1902 13.3335 24.1902 13.7327V14.8169H27.3675C27.6065 14.8169 27.8009 14.6223 27.8009 14.3831V11.2029H26.7177C26.3189 11.2029 25.9956 10.8793 25.9956 10.4802C25.9956 10.081 26.3189 9.75747 26.7177 9.75747H27.8333C27.9865 7.9084 28.7208 6.22284 29.8536 4.88385L29.0623 4.0918C28.7804 3.80948 28.7804 3.35195 29.0623 3.06963C29.3443 2.78748 29.8014 2.78748 30.0835 3.06963L30.8748 3.86167C32.2126 2.72781 33.8968 1.99288 35.744 1.83959V0.722695C35.744 0.32357 36.0672 0 36.466 0C36.8647 0 37.188 0.32357 37.188 0.722695V1.8394C39.0354 1.99288 40.7194 2.72762 42.0572 3.86167L42.8485 3.06963C43.1304 2.78748 43.5876 2.7873 43.8697 3.06963C44.1516 3.35195 44.1516 3.80948 43.8697 4.0918L43.0784 4.88385C44.2114 6.22284 44.9455 7.90858 45.0986 9.75747H46.2143C46.6131 9.75747 46.9363 10.081 46.9363 10.4802C46.9363 10.8793 46.6131 11.2029 46.2143 11.2029H45.0986C44.9453 13.0518 44.2112 14.7375 43.0784 16.0765L43.8697 16.8685C44.1516 17.1509 44.1516 17.6084 43.8697 17.8907C43.7288 18.0318 43.5439 18.1024 43.359 18.1024C43.1741 18.1024 42.9894 18.0318 42.8483 17.8907L42.057 17.0987C40.7192 18.2325 39.0352 18.9674 37.1878 19.1207V20.2375C37.1878 20.6366 36.8646 20.9601 36.4658 20.9601C36.067 20.9601 35.7438 20.6366 35.7438 20.2375V19.1532H32.5665C32.3274 19.1532 32.1331 19.3478 32.1331 19.587V22.7673H33.2163C33.6151 22.7673 33.9383 23.0908 33.9383 23.4899C33.9383 23.8891 33.6151 24.2126 33.2163 24.2126H32.1331V27.3929C32.1331 27.6321 32.3274 27.8267 32.5665 27.8267H35.7438V26.7424C35.7438 26.3433 36.067 26.0197 36.4658 26.0197C36.8646 26.0197 37.1878 26.3433 37.1878 26.7424V27.8591C39.0352 28.0126 40.7192 28.7474 42.057 29.8812L42.8483 29.0892C43.1304 28.807 43.5875 28.807 43.8695 29.0892C44.1514 29.3715 44.1514 29.829 43.8695 30.1114L43.0782 30.9034C44.211 32.2424 44.9453 33.9281 45.0984 35.777H46.2141C46.6129 35.777 46.9369 36.101 46.9369 36.5001ZM42.9654 36.5001C42.9654 32.9074 40.0557 29.9951 36.4663 29.9951H32.567C31.1313 29.9951 29.9673 28.8302 29.9673 27.393V19.587C29.9673 18.15 31.1312 16.985 32.567 16.985H36.4663C40.0557 16.985 42.9654 14.0727 42.9654 10.48C42.9654 6.88732 40.0557 3.975 36.4663 3.975C32.877 3.975 29.9673 6.88732 29.9673 10.48V14.3829C29.9673 15.8199 28.8035 16.985 27.3677 16.985H23.4683C19.879 16.985 16.9693 19.8973 16.9693 23.4899V27.3929C16.9693 28.8299 15.8055 29.9949 14.3697 29.9949H10.4703C6.88098 29.9949 3.97135 32.9072 3.97135 36.4999C3.97135 40.0926 6.88098 43.0049 10.4703 43.0049H14.3697C15.8053 43.0049 16.9693 44.1698 16.9693 45.607V53.413C16.9693 54.85 15.8055 56.015 14.3697 56.015H10.4703C6.88098 56.015 3.97135 58.9273 3.97135 62.52C3.97135 66.1127 6.88098 69.025 10.4703 69.025C14.0597 69.025 16.9693 66.1127 16.9693 62.52V58.6171C16.9693 57.1801 18.1332 56.015 19.5688 56.015H23.4682C27.0573 56.015 29.9672 53.1027 29.9672 49.5101V45.6071C29.9672 44.1701 31.131 43.0051 32.5668 43.0051H36.4662C40.0554 43.0051 42.9654 40.0928 42.9654 36.5001Z" fill="#CDDD71"/>
<path d="M144.422 23.5978C144.422 22.2573 145.249 21.5078 146.904 21.5078C148.559 21.5078 149.425 22.2573 149.425 23.5978C149.425 24.9382 148.558 25.6082 146.904 25.6082C145.25 25.6082 144.422 24.9382 144.422 23.5978ZM145.131 29.1957H148.716V49.5777H145.131V29.1957ZM154.94 21.9814H158.523V49.5779H154.94V21.9814ZM103.433 29.068C101.825 23.8953 95.9991 23.0085 91.448 23.7458C87.3638 24.1838 83.2385 27.2432 82.5041 31.5243C82.5041 31.5243 86.0025 32.1314 86.0025 32.1312C86.6067 26.1393 98.2806 24.4234 100.161 30.2747C100.459 31.7383 100.53 33.3768 100.539 35.0144C98.7 35.0165 96.0057 35.0198 96.0057 35.02C92.5868 34.9835 89.3209 34.7707 86.0654 36.2805C82.2687 37.9873 80.5583 43.223 83.0657 46.6899C86.1308 51.1231 92.1746 50.7733 96.4859 48.7027C97.9805 47.9946 99.3259 46.9835 100.466 45.7787C100.453 47.5246 100.438 49.5777 100.438 49.5777H103.989L103.989 38.9609C103.989 35.614 104.045 31.6175 103.433 29.068ZM95.0822 45.8544C92.3279 47.248 87.7343 47.9829 86.0315 44.8032C83.7944 40.1285 89.0952 38.1964 92.921 38.1603C94.5425 38.0922 97.9094 38.1177 100.362 38.1245C100.214 41.3107 98.1198 44.3851 95.0822 45.8544ZM138.889 23.558C134.209 23.6522 129.732 26.5424 128.022 30.9224C127.206 33.0467 127.087 34.9627 126.558 37.0532C126.312 38.2453 126.242 38.4639 125.859 38.8306C125.184 39.5108 124.025 39.473 123.375 38.7747C122.892 38.3163 122.865 37.4889 122.698 36.8828C122.186 34.8452 122.02 32.6765 121.184 30.7329C119.416 26.4103 114.852 23.5792 110.194 23.5846V49.5777H113.419V27.6305C116.056 28.6212 118.156 30.9939 118.651 33.8387C118.977 35.5949 119.197 37.4007 119.519 39.1569C120.398 43.1576 125.968 44.5105 128.593 41.3748C130.709 38.899 129.887 34.9873 131.136 32.1882C131.94 30.1239 133.65 28.5179 135.678 27.7053V49.5779H138.903L138.889 23.558ZM59.9348 23.558H77.9741V26.7517H63.5583V35.3067H76.2802V38.4209H63.5583V49.5779H59.9348V23.558ZM163.998 23.5978C163.998 22.2573 164.825 21.5078 166.48 21.5078C168.135 21.5078 169.001 22.2573 169.001 23.5978C169.001 24.9382 168.134 25.6082 166.48 25.6082C164.826 25.6082 163.998 24.9382 163.998 23.5978ZM164.707 29.1957H168.292V49.5777H164.707V29.1957ZM195.445 29.068C193.836 23.8953 188.01 23.0085 183.459 23.7458C179.375 24.1838 175.25 27.2432 174.515 31.5243C174.515 31.5243 178.014 32.1314 178.014 32.1312C178.618 26.1393 190.292 24.4234 192.172 30.2747C192.47 31.7383 192.541 33.3768 192.55 35.0144C190.711 35.0165 188.017 35.0198 188.017 35.02C184.598 34.9835 181.332 34.7707 178.077 36.2805C174.28 37.9873 172.57 43.223 175.077 46.6899C178.142 51.1231 184.186 50.7733 188.497 48.7027C189.992 47.9946 191.337 46.9835 192.477 45.7787C192.465 47.5246 192.449 49.5777 192.449 49.5777H196L196 38.9609C196 35.614 196.001 31.5314 195.445 29.068ZM187.093 45.8544C184.339 47.248 179.746 47.9829 178.043 44.8032C175.806 40.1285 181.106 38.1964 184.932 38.1603C186.554 38.0922 189.921 38.1177 192.373 38.1245C192.225 41.3107 190.131 44.3851 187.093 45.8544Z" fill="#002A33"/>
</svg>
