<svg width="45" height="45" viewBox="0 0 45 45" fill="none" xmlns="http://www.w3.org/2000/svg">
<path d="M22.5 0C10.0721 0 0 10.0721 0 22.5C0 34.9279 10.0721 44.9471 22.5 45H22.5529C24.9353 45 26.9074 44.2456 28.2574 43.0147C29.6206 41.7838 30.3485 40.0897 30.3353 38.3824C30.3353 37.575 30.1632 36.7676 29.8456 36.0132C30.375 35.7088 30.7324 35.4309 30.8382 35.3647C31.2088 35.1 32.2412 33.7103 31.5132 32.5721C30.7853 31.4338 28.1647 28.8265 27.4632 28.3765C26.7485 27.9397 25.5706 28.3765 24.9882 29.2103C24.4191 30.0441 23.9559 29.7926 23.9559 29.7926C23.9559 29.7926 22.3279 28.4824 20.0779 23.9426C17.8279 19.4029 17.775 17.3118 17.775 17.3118C17.775 17.3118 17.8544 16.7956 18.8603 16.8485C19.8794 16.9015 20.9382 16.2132 21.0176 15.3794C21.0971 14.5456 20.6074 10.8926 20.1441 9.60882C19.6809 8.33823 17.9471 8.325 17.5103 8.45735C17.0868 8.58971 12.6794 9.66176 12.3221 14.2809C11.9779 18.9 13.1691 23.0824 14.8632 26.5235C16.5706 29.9647 19.1779 33.4456 23.0691 35.9603C24.6441 36.9794 26.1529 37.1118 27.4235 36.9C27.6353 37.3897 27.7544 37.8926 27.7544 38.3956C27.7544 39.3882 27.3441 40.3544 26.5235 41.1221C25.6897 41.8765 24.4059 42.4324 22.5529 42.4324H22.5132C11.5015 42.3794 2.59412 33.5118 2.59412 22.5132C2.59412 17.0074 4.81765 12.0441 8.43088 8.43088C12.0309 4.80441 16.9941 2.58088 22.5 2.58088C28.0059 2.58088 32.9691 4.80441 36.5824 8.41765C40.1824 12.0309 42.4191 16.9941 42.4191 22.5C42.4191 25.9015 41.5721 29.0912 40.0765 31.8838C39.2426 33.4456 38.1971 34.8882 36.9794 36.1721C36.4897 36.6882 36.5162 37.5088 37.0324 37.9985C37.5485 38.4882 38.3691 38.4618 38.8588 37.9456C40.2221 36.5029 41.4 34.875 42.3529 33.1015C44.0471 29.9382 45 26.325 45 22.5C45 10.0721 34.9279 0 22.5 0Z" fill="white"/>
</svg>
