<svg width="470" height="18" viewBox="0 0 470 18" fill="none" xmlns="http://www.w3.org/2000/svg">
<path d="M107.92 6.94L103.97 6.64C108.71 5.89 112.16 6.03001 108.44 5.57001C107.91 6.94001 93.13 6.06001 92.61 7.43001L90.01 7.2C90.75 7.2 90.87 7.11 91.61 7.11C86.54 6.57 87.88 8.17999 81.37 8.12999C79.1 8.07999 77.51 7.92 79.06 7.72L74.01 8.17C72.54 8.18 72.89 7.93001 74.36 7.93001L66.65 8.21001L66.71 8.17C65.62 8.41 63.13 8.79001 61.92 8.96001C59.96 8.81001 62.9 8.79 62.39 8.64L58.13 9.06999C56.38 8.75999 59.91 8.33999 62.86 8.31999C58.84 7.04999 59.33 8.74001 50.71 8.15001L54.74 7.89C52.12 7.18 48.99 7.53001 44.42 7.15001C45.51 7.38001 53.57 8.14999 48.94 8.59999C47.63 8.52999 45.91 8.51999 43.42 8.84999C43.39 8.36999 40.95 8.54 37.9 8.64L38.09 8.00002C34.79 8.26002 35.06 8.58002 33.13 8.91002C29.45 8.93002 28.68 8.45 27.8 8.05C21.91 8.08 31.89 8.75001 24.92 9.03001C20.02 8.90001 16.58 9.24002 10.73 9.75002C7.30001 9.61001 11.32 9.35002 10.09 9.19002L7.06 9.77C6.32 9.77 6.55001 9.61001 6.67001 9.53001C4.11001 9.79001 6.47001 10.17 2.45001 10.44C2.28001 10.56 1.94 10.62 1.47 10.63L0.210022 10.68L0.26001 11.9C0.29001 12.68 0.200006 13.83 0.100006 15.17L0 16.49L1.61002 16.61C4.33002 16.82 7.83 17.09 10.62 16.58C11.85 16.73 10.04 16.99 10.42 17.22C17.25 16.54 16.27 16.71 21.87 15.87L26.66 16.18C23.13 15.78 27.61 15.11 31.53 14.55C30.28 14.35 29.21 14.17 28.49 14.09L34.76 13.6C35.52 13.69 34.89 13.92 33.87 14.21C34.3 14.14 34.7 14.08 35.02 14.03C37.27 14.22 36.11 14.61 34.51 15C33.74 14.88 32.98 14.77 32.24 14.66C30.7 15.08 29.26 15.55 29.59 15.91C30 15.83 30.78 15.75 31.64 15.69C31.24 15.8 30.98 15.9 31.17 15.96C31.38 16.02 32.04 15.87 33.06 15.68L34.5 16.36L34.84 16.07L43.06 16.33C48.92 15.48 54.01 14.31 63.32 13.8C61.02 14.38 62.84 14.66 62.73 15.29C60.17 14.69 55.51 15.73 50.68 15.71C53.2 15.72 52.66 16.03 52.02 16.15L60.63 15.36C60.45 15.87 62.47 15.7 64.73 15.86C63.01 14.9 71.14 15.05 74.64 14.66C74.87 14.99 74.03 15.35 69.75 15.37C74.49 16.02 75.82 14.06 80.47 14.59C79.42 14.62 78.86 14.58 78.45 14.76C80.88 14.41 86.86 14.51 85.46 14.83L84.42 14.86C91.36 14.82 105.54 14.39 106.55 13.51C106.62 13.62 105.66 14.56 105.25 14.74L117.56 11.6C116.49 12.35 120.71 14 114.97 14.54C116.62 14.61 118.67 14.68 122.15 14.35C121.02 14.27 119.32 13.36 120.86 13.26C125.1 13.98 123.8 13.63 129.03 14.2C127.34 14.08 129.19 12.89 131.86 12.87C131.45 13.05 132.11 14 131.13 14.14L137.75 12.87C136.1 13.11 137.48 13.83 138.97 14.11C138.28 13.91 144.71 14 146.48 13.85L143.66 13.65C151.16 13.65 151.03 11.9 158.47 11.79C157.57 12.04 156.28 13.27 160.06 13.33C161.78 12.71 167.68 10.39 174.25 9.78999L175.52 10.09L180.56 9.59999C177.43 10.54 168.65 12.56 163.85 13.38C166.66 13.58 164.64 13.75 168.84 13.63C170.33 13.9 166.56 14.15 165.32 14.2L175.11 14.18C174.66 13.52 182.58 13.34 182.19 12.78L171.58 13.72C171.13 13.06 177.68 11.67 184.62 11.63C186.39 11.86 183.33 12.86 183.48 13.08C184.37 12.83 190.05 12.49 190.69 12.64L187.76 13.07C191.63 13.24 194.04 12.04 198.69 12.57C200.29 12.58 203.49 13.33 203.76 12.92C201.13 12.21 200.57 9.85001 202.29 9.24001C202.85 9.28001 210.71 9.78001 212.55 10.12C215.2 10.66 208.63 11.64 210.88 12.11C210.97 11.92 212.42 11.66 213.03 11.58C214.71 11.7 212.35 12.16 216 12C216.59 11.3 223.43 11.89 217.71 11.38C221.28 11.1 221.51 11.43 225.71 11.31C224.36 10.9 229.44 9.73 233.02 9.45C232.81 9.63 233.62 9.84001 234.01 9.93001C241.34 9.83001 245.28 10.05 252.11 9.90001C252.74 10.05 256.04 10.18 254.65 10.5C255.63 10.36 256.53 10.11 258.63 10.04C262.72 10.54 253.93 10.24 257.06 10.88C257.32 10.48 262.5 10.21 265.49 9.89C264.55 9.3 258.55 9.93001 255.55 10.24C255.52 9.40001 260.73 8.39001 267.86 7.84001C273.53 7.50001 270.33 8.33002 271.31 8.19002C281.97 8.10002 280.36 6.51 289.22 6.92C292.74 7.38 289.4 7.99 290.19 8.36C285.57 8.67 283.09 8.18 279.95 8.27L283.81 8.44002C282.34 8.65002 279.26 8.86001 277.58 8.74001C280.53 9.16001 295.59 8.42001 303.82 8.68001C305.28 8.47001 307.79 8.22001 306.6 8.03001L304 8.16002C301.6 7.78002 308.88 7.45001 305.59 7.32001C309.07 6.94001 312.97 6.37 317.89 6.5L318.83 7.09001C318.72 6.91001 315.61 6.8 314.23 7.02C316.27 6.7 321.78 7.68 324.01 6.83L320.56 6.48001C324.06 6.09001 328.37 5.34 332.73 5.44C330.73 4.88 331.73 5.53 328.62 4.89C331.32 5.71 317.48 5.11001 321.81 5.93001C318.62 5.18001 316.31 5.71001 312.14 5.10001C312.27 5.30001 313.62 5.45 309.96 5.44C309.8 5.5 309.41 5.59 309.16 5.64C309.05 5.64 309.01 5.63 308.91 5.63C308.98 5.64001 309.04 5.64001 309.11 5.65001C308.95 5.68001 308.94 5.69 309.19 5.66C310.06 5.73 310.77 5.82001 311.06 5.93001C309.26 6.44001 303.44 6.55001 301.48 6.84001C299.31 6.79001 302.38 6.59001 301.19 6.40001L298.26 6.83C297.96 6.39 292.48 6.21001 297.58 5.84001L292.98 5.92C290.27 5.73 286.54 5.71001 284.25 5.96001C282.08 5.91001 278.78 6.58 280.66 6.19L273.45 6.63L273.38 6.52C266.26 6.62 258.75 7.6 250.59 6.97C248.2 7.14 245.72 7.33 241.71 7.3L240.92 6.93001C237.85 7.14001 231.67 6.75 230.36 7.19C227.02 6.22 215.42 7.30001 210.01 7.24001L209.82 7.75C206.1 7.81 202.53 8.03001 197.91 8.34001L198.2 8.78001C194.22 9.24001 187.95 8.68999 181.64 8.87999C182.06 8.69999 183.66 8.70999 184.8 8.78999C177.25 7.94999 168.93 9.89 162.08 9.3C160.38 9.5 159.15 9.47 157.95 9.39C158.11 9.39 158.25 9.37 158.37 9.36C158.2 9.36 157.94 9.37001 157.67 9.37001C156.92 9.31001 156.14 9.25001 155.3 9.18001C156.02 9.27001 156.7 9.35001 157.29 9.37001C155.98 9.41001 153.99 9.51 152.04 9.67L151.2 9.21001C151.04 9.22001 150.91 9.23 150.75 9.23C148.83 9.1 149.22 9.49 150.25 9.83C149.27 9.93 148.37 10.05 147.68 10.18C146.11 9.44001 142.57 10.56 140.42 9.78001C139.11 10.21 130.62 10.31 129.6 11.18C129.53 11.07 128.95 11.03 130.01 11C127.83 10.95 125.66 10.91 123.71 11.19L122.77 10.6L118.04 11.53C115.15 11.22 113.94 11.03 116.8 10.5C109.9 11.38 111.19 10.9 105.32 11.75L105.6 11.35C103.5 11.41 100.15 12.02 98.87 11.72C94.15 11.07 75.59 12.14 63.49 11.72C65.86 12.83 57.86 11.32 57.41 12.24C56.7 11.98 55.01 11.86 56.96 11.58C50.8 11.99 47.69 11.35 43.45 12.21C42.74 11.95 44.76 11.78 44.13 11.63C43.64 11.7 42.18 11.91 41.53 11.76C40.9 11.61 42.43 11.51 43.4 11.37C37.1 11.56 36.49 12.42 36.05 13.23C32.85 12.92 31.26 13.01 28.97 13.59C27.85 13.35 25.99 13.12 29.9 12.94C27.7 12.95 16.45 12.86 16.24 13.51C15.55 13.36 13.16 13.53 12.58 13.62C7.64002 13.69 7.20002 13.65 2.36002 13.82L3.71002 13.89C3.04002 14.18 2.33 14.3 1.53 14.34L2.38 15.15C2.34 14.23 2.39 13.18 2.41 11.88L1.49002 12.84C2.23002 12.85 3.05001 12.85 3.98001 12.81L3.87 12.89C12.85 13.24 7.73 12.54 16.59 12.97L16.1 12.5C16.9 11.45 23.95 12.93 29.07 12.42L27.21 12.19C30.01 11.77 35.08 13.41 37.9 13.48C38.52 13.56 36.93 13.65 36.08 13.73C43.46 14.17 37.02 13.08 42.51 12.81C43.53 13.13 41.22 13.7 44.92 13.68C46.77 13.91 55.62 12.34 60.68 12.87C59.56 12.63 58.45 12.4 61 12.14C64.91 11.96 71.59 12.89 75.11 11.98C75.61 12.04 75.8 12.1 75.82 12.17C78.8 11.89 85.53 11.6 87.32 11.11C90.12 12.7 105.89 9.88002 105.85 11.41L115.04 11.12L114.8 11.28C120.68 11.25 122.75 10.83 124.81 10.42C126.17 10.49 125.18 10.66 125.07 10.74C133.66 10.85 134.52 10.77 141.7 9.84001L142.46 10.32C144.41 9.98999 154.89 10.82 163.3 10.05C163.22 10.11 163.05 10.21 162.38 10.29C171.84 9.48999 185.1 11.15 188.53 9.27L194.77 8.68001C186.68 8.72001 195.96 7.87001 192.62 7.65001C195.8 7.47001 200.86 8.01002 196.95 8.19002L196.34 8.11C194.92 9.08 206.4 8.22 206.2 8.86C222.12 8.45 237.65 8.61999 252.56 8.31999L250.83 7.63L256.03 7.55C257.4 7.69 257.88 8.07999 254.16 8.12999C256.12 8.49999 260.38 7.64001 260.48 7.48001C267.75 7.61001 257.66 8.4 259.89 8.36L262.91 8.24001L262.23 8.17C264.68 7.82 264.89 7.49001 269.35 7.43001C272.18 7.51001 270.81 7.84999 271.92 7.84999C271.91 7.89999 272.29 7.92 273.62 7.83L280.17 7.74001L277.54 7.22C280.44 6.87 283.7 7.11 280.66 6.53C285.12 7.44 305.11 6.34001 307.85 6.59001C311.91 6.08001 315.92 5.99001 320.9 5.93001C319.66 5.84001 318.91 5.21 323.2 5.19C321.66 6.57 331.07 5.59001 334.56 6.48001C331.45 5.91001 346.75 6.05 341.87 5.25C345.45 5.28 342.1 5.75 344.82 6C353.33 5.29 363.61 5.91 374.14 5.5C374.3 5.32 372.53 5.09 374.78 4.78L380.36 5.53C382.44 5.4 382.25 4.47 386.07 5C385.53 4.86 384.72 4.66001 386.12 4.57001C406.77 4.96001 428.27 2.91 449.26 4.05C446.41 3.77 448.3 3.7 450.47 3.63C449.06 3.58 450.49 3.19001 450.21 2.96001L459 3.42C460.58 2.72 468.4 3.16001 469.31 2.51001L466.53 2.69C470.21 1.86 461.32 1.15001 461.84 0.180008C457.72 1.12001 450.9 -0.829991 444.14 0.540009C442.64 0.380009 445.41 0.2 444.6 0C442.89 0.45 440.81 0.580006 436.96 0.490005L437.39 0.380005C426.58 0.730005 421.93 0.430008 409.77 0.430008L410.68 0.880005C408.07 0.880005 407.51 0.740009 406.29 0.650009C403.31 1.44001 413.63 0.520005 410.91 1.38C407.42 0.490005 392.49 1.78001 390.13 0.740005C386.11 0.830006 391.32 1.26001 387.3 1.35001L386.23 1.08L385.22 1.48001C382.58 1.48001 381.25 1.14 381.14 0.889999C381.78 0.909999 382.95 0.780006 383.64 0.740005C380.22 0.470005 374.01 1.08001 372.84 0.990005L376.7 1.09001C365.74 1.62001 352.35 1.53001 341.77 2.37001L342.58 2.58C334.5 3.18 336.1 2.48001 327.22 2.87001L327.54 2.81C325.77 3.07 323.4 3.24 320.97 3.27C323.21 2.96 316.74 2.86 319.67 2.5C310.91 3.14 315.34 2.95 309.57 3.91L308.23 3.57001C306.26 3.95001 306.1 4.13 301.67 4.33C305.3 3.93 298.83 3.83001 302.89 3.32001C293.57 2.72001 289.09 4.45 284.79 3.36C280.54 4.48 292.86 3.75 290.47 4.02C292.48 4.31 286.96 4.87 284.04 4.83C281.07 4.87 278.96 3.63001 271.48 3.82001C272.22 3.81001 272.27 3.73 273.02 3.72C270.22 3.52 267.54 4.20001 264.1 3.85001C262.19 4.51001 259.64 3.92 259.11 4.72L265.97 4.38C262.09 4.67 258.46 5.68001 252.04 5.38C252.54 5.21 254.44 4.96 255.74 4.81C253.86 4.62 252.14 5.05001 250.19 4.85001C250.73 4.04001 258.52 4.49001 262.68 3.79001C260.66 3.50001 254.81 4.54 256.89 3.64C253.9 4.8 249.52 3.67001 244.47 4.62001L244.79 4.14C243.99 4.23 242.33 4.49 240.86 4.52L243.52 3.84001C239.43 4.46001 235.6 3.56 231.68 3.94C239.91 3.74 233.54 4.47001 237.03 4.74001C226.89 5.61001 231.16 3.63001 219.8 4.12001C221.34 4.02001 225.59 4.27 223.18 4.55C221.01 4.5 218.15 4.38 216.82 4.17C209.29 4.44 217.99 4.63 214.79 5C212.21 4.48 211.1 5.32 207.8 5.58L207.77 5.10001C199.18 4.99001 205.52 6.16001 197.78 5.96001L201.03 5.22L197 5.48001L197.82 4.91C193.45 5.42 192.08 5.34001 187.78 5.29001C188.79 5.61001 187.24 6.18 183.44 6.28C180.84 6.05 184.88 5.79001 179.49 5.98001C180.7 5.65001 182.02 5.24001 184.38 5.63C184.62 5.47001 185.57 5.3 185.82 5.14C183.02 4.87 178.8 5.22 176.85 5.27C177.6 5.27 178.5 5.28 178.96 5.33L171.16 6.18001C169.93 6.03001 170.9 5.86 171.86 5.69C170.28 5.78 169.19 6.02001 166.86 6.12001C167.45 5.71001 167.3 5.31 170.59 5.05L163.16 5.65001C162.66 5.49001 159.33 5.27001 160.29 5.10001C156.16 4.96001 150.18 6.09 144.7 5.91C144.42 5.99 143.85 6.08 142.69 6.16C137.55 6.19 132.98 5.81001 126.9 6.49001L123.43 5.87001C118.66 6.14001 128.13 6.65001 120.19 7.09001C114.57 7.44001 118.08 6.54 116.1 6.39C113.31 6.81 108.46 7.64001 103.28 7.18001C104.98 6.95001 106.33 7.03 107.92 6.94ZM49.05 8.58C50.19 8.45 52.46 8.08999 53.3 8.34999C52.01 8.93999 51 8.7 49.05 8.58ZM40.21 15.26C39.37 15.44 38.05 15.39 36.57 15.24C37.64 15.18 38.86 15.17 40.21 15.26ZM289.45 6.25C289.4 6.26 289.37 6.27 289.33 6.28C286.78 6.15 287.69 6.2 289.45 6.25ZM294.74 6.34001C295.27 6.26001 295.23 6.19 295.01 6.13C294.64 6.26 293.46 6.30001 292.11 6.29001C292.48 6.42001 293.17 6.49001 294.74 6.34001ZM272.52 7.64L271.49 7.54001C273.81 7.34001 273.16 7.48 272.52 7.64Z" fill="white"/>
</svg>
